<svg width="302" height="245" viewBox="0 0 302 245" fill="none" xmlns="http://www.w3.org/2000/svg">
<path d="M212.845 2.09377L206.217 9.2878L195.17 15.2828L185.596 24.2754L167.185 50.054L158.347 57.8475L145.828 68.039L128.153 78.8301L98.6947 93.2182L69.2366 102.81L45.6701 108.805L36.8327 113.002L29.4681 116.599L11.7933 120.196L1.48291 125.591L6.63808 132.785L11.7933 140.579L16.212 150.171L23.5765 163.36L36.0962 189.139L43.4607 201.129L53.0346 216.116L60.3992 225.708L67.7637 234.101L77.3376 243.094L87.6479 234.101L95.0125 225.109L102.377 220.912L120.788 216.116L123.734 225.109L128.153 234.101H139.2V222.111L153.929 216.116L168.658 210.121L187.069 202.927L209.163 193.935L216.527 196.932L223.892 207.124L229.783 219.114L238.621 225.109L247.458 232.902L260.714 225.109L251.877 217.315L242.303 210.121L231.256 201.129L227.574 193.335L229.783 186.141L242.303 180.146L260.714 172.952L299.01 159.163L300.483 150.171L290.173 141.178L273.971 126.191L260.714 108.206L249.668 87.2231L238.621 66.2405L227.574 45.258L220.21 27.2729L215.054 12.2853L212.845 2.09377Z" stroke="#FF5500" stroke-opacity="0.6" stroke-width="2"/>
</svg>
